<?xml version="1.0" encoding="utf-8"?>
<!-- Generator: Adobe Illustrator 15.0.0, SVG Export Plug-In . SVG Version: 6.00 Build 0)  -->
<!DOCTYPE svg PUBLIC "-//W3C//DTD SVG 1.1//EN" "http://www.w3.org/Graphics/SVG/1.1/DTD/svg11.dtd">
<svg version="1.1" id="圖層_1" xmlns="http://www.w3.org/2000/svg" xmlns:xlink="http://www.w3.org/1999/xlink" x="0px" y="0px"
	 width="34.017px" height="34.016px" viewBox="0 0 34.017 34.016" enable-background="new 0 0 34.017 34.016" xml:space="preserve">
<g>
	<path d="M30.133,12.994l-4.65,17.001c-0.449,1.449-4.299,2.699-9.1,2.699s-5.801-1.299-6.301-2.65l-6.4-16.45
		c-0.301-0.75-0.199-2.051,0.1-2.701l2.602-5.099c0.25-0.65,1.199-1.35,2-1.551l6.15-1.5c0.35-0.049,2.148-0.6,4.049-0.6
		c1.102,0,1.25,0.1,4.301,0.75c0.801,0.15,1.801,0.9,2.25,1.551c0.951,1.1,3.65,4.5,4.451,5.849
		C30.232,11.293,30.283,12.193,30.133,12.994z M24.033,29.694c0-0.449-1.9-1.699-5.1-1.699c-3.852,0-7.051,1.5-7.051,2.15
		c0,0.898,2.449,1.549,4.85,1.549C20.383,31.694,24.033,30.544,24.033,29.694z"/>
</g>
</svg>
